<svg xmlns="http://www.w3.org/2000/svg" viewBox="0 0 40 40" role="img" aria-label="Weekend Builds">
  <defs>
    <linearGradient id="wb" x1="0%" y1="0%" x2="100%" y2="100%">
      <stop offset="0%" stop-color="#a78bfa"/>
      <stop offset="100%" stop-color="#22d3ee"/>
    </linearGradient>
  </defs>
  <rect x="2" y="2" width="36" height="36" rx="11" fill="url(#wb)"/>
  <path d="M20 7c0 0-6 8.5-6 14a6 6 0 1012 0C26 15.5 20 7 20 7z" fill="#fff"/>
  <circle cx="20" cy="19" r="2.5" fill="#7c3aed"/>
  <path d="M14 24l-3 4 3 1 1-3-1-2zm16 0l1 2 1 3 3-1-3-4-2 0z" fill="#fff"/>
  <ellipse cx="20" cy="29.5" rx="3.5" ry="2" fill="#fde047"/>
  <ellipse cx="20" cy="31.5" rx="2.5" ry="1.6" fill="#fb7185"/>
</svg>
