<svg xmlns="http://www.w3.org/2000/svg" viewBox="0 0 640 360" role="img" aria-label="Junto">
  <defs>
    <linearGradient id="bg" x1="0%" y1="0%" x2="100%" y2="100%">
      <stop offset="0%" stop-color="#1a0a3e"/>
      <stop offset="50%" stop-color="#12082e"/>
      <stop offset="100%" stop-color="#07051a"/>
    </linearGradient>
    <linearGradient id="accent" x1="0%" y1="0%" x2="100%" y2="100%">
      <stop offset="0%" stop-color="#7c3aed"/>
      <stop offset="100%" stop-color="#00d2ff"/>
    </linearGradient>
    <filter id="blur"><feGaussianBlur stdDeviation="10"/></filter>
  </defs>
  <rect width="640" height="360" fill="url(#bg)"/>
  <circle cx="100" cy="90" r="70" fill="#7c3aed" filter="url(#blur)" opacity="0.35"/>
  <circle cx="540" cy="270" r="90" fill="#00d2ff" filter="url(#blur)" opacity="0.25"/>
  <g fill="#fff" opacity="0.6">
    <circle cx="60" cy="40" r="1.2"/><circle cx="180" cy="70" r="1"/><circle cx="420" cy="50" r="1.5"/>
    <circle cx="560" cy="100" r="1"/><circle cx="320" cy="25" r="1.2"/><circle cx="500" cy="320" r="1"/>
  </g>
  <rect x="200" y="120" width="240" height="140" rx="16" fill="rgba(255,255,255,0.06)" stroke="url(#accent)" stroke-width="2"/>
  <text x="320" y="175" text-anchor="middle" font-family="system-ui,sans-serif" font-weight="800" font-size="42" fill="url(#accent)">JUNTO</text>
  <text x="320" y="210" text-anchor="middle" font-family="system-ui,sans-serif" font-weight="600" font-size="14" fill="#c4b5fd" letter-spacing="3">AI QUIZ PLATFORM</text>
  <circle cx="260" cy="240" r="8" fill="#ff6b9d" opacity="0.9"/>
  <circle cx="290" cy="240" r="8" fill="#fbbf24" opacity="0.9"/>
  <circle cx="320" cy="240" r="8" fill="#4ade80" opacity="0.9"/>
  <circle cx="350" cy="240" r="8" fill="#00d2ff" opacity="0.9"/>
  <circle cx="380" cy="240" r="8" fill="#c4b5fd" opacity="0.9"/>
  <text x="320" y="310" text-anchor="middle" font-family="system-ui,sans-serif" font-size="11" fill="#7c6a9e" letter-spacing="2">BUILT FOR KIDS · BY KIDS</text>
</svg>
