<svg xmlns="http://www.w3.org/2000/svg" viewBox="0 0 640 360" role="img" aria-label="Sound Wizard">
  <defs>
    <linearGradient id="sw-bg" x1="0%" y1="0%" x2="0%" y2="100%">
      <stop offset="0%" stop-color="#4a148c"/>
      <stop offset="100%" stop-color="#2a0a4d"/>
    </linearGradient>
    <linearGradient id="sw-gold" x1="0%" y1="0%" x2="100%" y2="0%">
      <stop offset="0%" stop-color="#ffd700"/>
      <stop offset="100%" stop-color="#ff8c00"/>
    </linearGradient>
    <radialGradient id="sw-glow" cx="50%" cy="50%" r="50%">
      <stop offset="0%" stop-color="#ff1a5e" stop-opacity="0.35"/>
      <stop offset="100%" stop-color="#ff1a5e" stop-opacity="0"/>
    </radialGradient>
  </defs>
  <rect width="640" height="360" fill="url(#sw-bg)"/>
  <rect x="0" y="0" width="640" height="5" fill="url(#sw-gold)"/>
  <circle cx="320" cy="175" r="120" fill="url(#sw-glow)"/>
  <path d="M0,210 Q160,150 320,210 T640,210" fill="none" stroke="#00ffff" stroke-width="2.5" opacity="0.45"/>
  <path d="M0,235 Q160,190 320,235 T640,235" fill="none" stroke="#ffd700" stroke-width="2" opacity="0.35"/>
  <!-- Left hand -->
  <g transform="translate(175,115)">
    <ellipse cx="35" cy="55" rx="28" ry="38" fill="rgba(255,255,255,0.15)" stroke="#00ffff" stroke-width="2"/>
    <rect x="10" y="0" width="12" height="35" rx="6" fill="#00ffff" opacity="0.7"/>
    <rect x="26" y="-8" width="12" height="42" rx="6" fill="#00ffff" opacity="0.8"/>
    <rect x="42" y="2" width="12" height="35" rx="6" fill="#00ffff" opacity="0.7"/>
    <rect x="58" y="12" width="10" height="28" rx="5" fill="#00ffff" opacity="0.6"/>
    <rect x="4" y="18" width="10" height="28" rx="5" fill="#00ffff" opacity="0.6"/>
  </g>
  <!-- Right hand -->
  <g transform="translate(395,115)">
    <ellipse cx="35" cy="55" rx="28" ry="38" fill="rgba(255,255,255,0.15)" stroke="#ffd700" stroke-width="2"/>
    <rect x="10" y="0" width="12" height="35" rx="6" fill="#ffd700" opacity="0.7"/>
    <rect x="26" y="-8" width="12" height="42" rx="6" fill="#ffd700" opacity="0.8"/>
    <rect x="42" y="2" width="12" height="35" rx="6" fill="#ffd700" opacity="0.7"/>
    <rect x="58" y="12" width="10" height="28" rx="5" fill="#ffd700" opacity="0.6"/>
    <rect x="4" y="18" width="10" height="28" rx="5" fill="#ffd700" opacity="0.6"/>
  </g>
  <rect x="180" y="255" width="60" height="55" rx="8" fill="rgba(0,0,0,0.35)" stroke="#00ffff" stroke-width="2"/>
  <rect x="400" y="255" width="60" height="55" rx="8" fill="rgba(0,0,0,0.35)" stroke="#ffd700" stroke-width="2"/>
  <rect x="188" y="285" width="44" height="18" rx="4" fill="#00ffff" opacity="0.65"/>
  <rect x="408" y="270" width="44" height="33" rx="4" fill="#ffd700" opacity="0.65"/>
  <text x="320" y="88" text-anchor="middle" font-family="system-ui,sans-serif" font-weight="900" font-size="34" fill="#ffffff">Sound Wizard</text>
  <text x="320" y="118" text-anchor="middle" font-family="system-ui,sans-serif" font-size="13" fill="#d8b4fe" letter-spacing="5">ACADEMY</text>
  <text x="320" y="340" text-anchor="middle" font-family="system-ui,sans-serif" font-size="10" fill="rgba(255,255,255,0.45)" letter-spacing="3">HAND-TRACKING SYNTH</text>
</svg>
